<svg xmlns="http://www.w3.org/2000/svg"
 viewBox="529 728 789 848">

<g transform="translate(0,2304) scale(0.1,-0.1)"
fill="#000000" stroke="none">
<path d="M9040 15559 c-174 -20 -373 -75 -502 -140 -88 -44 -422 -233 -743
-420 -148 -86 -391 -226 -540 -310 -316 -178 -857 -491 -965 -557 -187 -114
-388 -305 -503 -478 -123 -186 -225 -431 -269 -647 l-23 -112 0 -1360 c0
-1274 1 -1367 18 -1469 46 -272 156 -528 324 -752 73 -98 261 -276 369 -350
85 -59 498 -303 954 -564 118 -67 292 -167 385 -220 914 -526 938 -539 1050
-586 266 -109 573 -148 872 -110 268 34 411 89 763 292 135 77 380 218 545
313 165 95 372 215 460 266 88 51 338 195 555 320 446 258 482 280 599 379
268 226 484 594 556 951 34 167 36 288 32 1605 -3 1195 -5 1311 -21 1379 -50
214 -129 427 -206 557 -109 185 -317 418 -470 525 -61 44 -451 271 -1055 617
-471 270 -926 533 -1037 599 -213 127 -414 211 -593 247 -176 35 -383 44 -555
25z m2837 -1813 c164 -44 323 -162 417 -309 49 -77 92 -189 112 -293 22 -120
15 -326 -15 -441 -43 -167 -66 -215 -409 -885 -113 -221 -142 -307 -142 -429
0 -104 19 -169 73 -251 39 -58 170 -191 283 -286 120 -102 214 -247 266 -412
20 -66 23 -93 22 -225 -1 -127 -5 -165 -28 -250 -92 -352 -391 -687 -713 -800
-244 -85 -487 -37 -688 136 -166 142 -198 167 -245 193 -66 36 -145 44 -204
22 -124 -47 -191 -188 -246 -516 -44 -262 -101 -420 -215 -590 -83 -126 -222
-267 -335 -342 -99 -66 -148 -88 -274 -125 -79 -24 -108 -28 -221 -27 -148 0
-219 15 -330 69 -183 89 -311 252 -395 502 -59 177 -60 209 -60 1738 0 1470 2
1537 49 1731 90 370 375 677 731 788 63 20 115 28 200 33 221 10 353 -40 556
-212 117 -99 221 -142 314 -129 141 19 222 128 340 454 102 284 202 460 335
595 185 188 438 292 680 280 50 -3 113 -11 142 -19z"/>
</g>
</svg>
